Coordinates
version=1
nRows=9
nColumns=36
inDegrees=yes

Units are S.I. units (second, meters, Newtons, ...)
If the header above contains a line with 'inDegrees', this indicates whether rotational values are in degrees (yes) or radians (no).

endheader
time	pelvis_tilt	pelvis_list	pelvis_rotation	pelvis_tx	pelvis_ty	pelvis_tz	hip_flexion_r	hip_adduction_r	hip_rotation_r	knee_angle_r	knee_angle_r_beta	ankle_angle_r	subtalar_angle_r	mtp_angle_r	hip_flexion_l	hip_adduction_l	hip_rotation_l	knee_angle_l	knee_angle_l_beta	ankle_angle_l	subtalar_angle_l	mtp_angle_l	lumbar_extension	lumbar_bending	lumbar_rotation	arm_flex_r	arm_add_r	arm_rot_r	elbow_flex_r	pro_sup_r	arm_flex_l	arm_add_l	arm_rot_l	elbow_flex_l	pro_sup_l
      0.00000000	     -0.68942894	     -0.40835932	      0.77671567	      0.29734436	      0.95912882	     -0.09875028	     -4.24260400	     -3.43842303	     -9.77118048	      5.33305928	      0.09307944	     -5.23142806	    -24.27931627	     -5.48686937	     -1.63044182	     -2.84166296	      0.66429958	      4.80642214	      0.08388789	      1.18864956	    -12.22895277	     -5.48686937	     -4.79072208	      1.77181806	      1.42564245	      2.32573764	    -12.33427006	    -13.38668602	     90.36849603	     89.50736446	      0.84465073	     -4.17287840	     -7.00523735	     92.23998528	     93.63747974
      0.01666670	     -1.92682154	     -0.25534425	      1.72247428	      0.29784793	      0.95605838	     -0.10001926	     -2.71985573	     -3.49866478	    -11.70958981	      5.70851420	      0.09963237	     -1.33735096	    -20.82586017	     -5.93010978	      0.07995921	     -2.43517624	      0.89161736	      4.31810521	      0.07536515	      1.81078922	     -9.58352167	     -5.93010978	     -2.45057316	      1.79708058	      1.42418565	      0.86842121	    -11.81565622	    -19.37036591	     91.40817460	     86.40424220	      0.34485570	     -4.27280408	     -7.88500868	     91.58351379	     88.97333214
      0.03333330	     -2.22044535	      0.33752486	      2.00956367	      0.29748640	      0.95801687	     -0.09960302	     -2.59551089	     -4.10865406	    -12.95286937	      5.22861591	      0.09125656	     -0.77560372	    -20.09073914	     -6.08214489	      0.24517564	     -1.86774104	      0.67414789	      3.85684767	      0.06731469	      1.86634663	     -8.17273336	     -6.08214489	     -2.06899319	      0.91984033	      1.33225446	      0.90902417	    -11.22357711	    -21.20073181	     90.57909565	     84.81398078	      1.05743416	     -4.75325516	     -8.88545612	     90.89459796	     86.89468439
      0.05000000	     -1.49138228	      0.76297678	      2.33644712	      0.29686281	      0.95837700	     -0.09970782	     -3.73215648	     -4.53093981	    -13.61359661	      4.60742995	      0.08041482	      0.15223846	    -18.91717904	     -6.24867482	     -1.05781547	     -1.46997016	      0.93754392	      2.90014465	      0.05061707	      1.75368079	     -7.28964121	     -6.24867482	     -2.88666460	      0.29429563	      1.13503600	      0.49608823	    -10.90866912	    -23.51634724	     89.97248631	     82.96901566	      1.88406461	     -5.24468171	     -9.69688978	     90.68472073	     84.95751602
      0.06666670	     -0.91104576	      0.90956249	      2.41847633	      0.29649907	      0.95929403	     -0.09933642	     -4.58700906	     -4.62459806	    -14.21360400	      4.28020919	      0.07470374	      0.76929133	    -18.22361276	     -6.64704396	     -2.06353995	     -1.36951821	      1.34741029	      2.17470706	      0.03795580	      1.37853727	     -7.29017792	     -6.64704396	     -3.66650150	      0.12371853	      1.86384319	     -0.51414246	    -10.45242975	    -26.19398725	     91.15305495	     77.51947902	      2.82048340	     -5.57600897	     -9.72672177	     90.32643268	     81.44545706
      0.08333330	     -0.34126225	      1.06053914	      2.54370409	      0.29591707	      0.95702944	     -0.09947060	     -5.32322040	     -4.71448607	    -14.52007010	      4.11174402	      0.07176347	      0.99581804	    -18.53389335	     -6.98320981	     -2.82535245	     -1.24521556	      1.73485064	      1.85942629	      0.03245311	      1.27422777	     -7.35736321	     -6.98320981	     -4.37499936	     -0.11974718	      2.05799614	     -0.38807583	     -9.96261675	    -27.49088408	     91.77206823	     73.80844244	      3.43909381	     -6.07934804	    -10.34360034	     90.68740710	     78.60893602
      0.10000000	      0.07019184	      1.22423196	      2.67994441	      0.29556823	      0.95255107	     -0.09886155	     -5.81516725	     -4.77124028	    -14.51498938	      4.06489114	      0.07094573	      1.54722245	    -18.83472280	     -7.07124327	     -3.32018347	     -1.12327006	      2.33964294	      1.73155487	      0.03022133	      1.19814417	     -8.01651529	     -7.07124327	     -4.90423400	     -0.36255440	      2.18759551	      0.13532706	     -9.58681255	    -28.37923097	     92.70970717	     72.15485525	      3.59119561	     -6.26791939	    -11.11788757	     91.59114176	     77.17452307
      0.11666670	      0.38472142	      1.39569859	      2.93877757	      0.29520042	      0.95937982	     -0.09908664	     -6.26670509	     -4.84944624	    -14.86987946	      3.97391687	      0.06935793	      1.62647129	    -18.88225702	     -7.07823735	     -3.74711612	     -0.97873023	      2.80488499	      1.56452178	      0.02730606	      1.19821692	     -8.19169197	     -7.07823735	     -5.23552504	     -0.59713146	      1.83521080	      0.59143375	     -9.16906067	    -29.63669786	     92.55634882	     71.95382142	      3.81838162	     -6.55282543	    -11.62594578	     91.36661894	     77.25667046
      0.13333330	      0.74486363	      1.49706583	      3.06562501	      0.29485589	      0.95757155	     -0.09875408	     -6.68218698	     -4.86073810	    -14.92486897	      3.90759665	      0.06820043	      1.92619449	    -18.95542170	     -7.29923918	     -4.15421521	     -0.90882479	      3.28514745	      1.52490280	      0.02661457	      1.02374925	     -9.06149384	     -7.29923918	     -5.76480484	     -0.74855287	      2.01284075	      0.62313002	     -8.89936235	    -31.06624585	     93.56513177	     68.01808767	      4.16123971	     -6.83344734	    -11.53912413	     91.59184211	     73.26731604
